<svg width="inherit" height="inherit" viewBox="0 0 348 342" fill="none" xmlns="http://www.w3.org/2000/svg">
<path d="M-17 267.423C-17 267.423 -14.604 292.307 -11.0099 292.307C-7.41584 292.307 -7.41584 340 -3.82178 340C-0.227724 340 -0.227724 323.411 3.36634 323.411C6.96039 323.411 6.96039 329.632 10.5545 329.632C14.1485 329.632 14.1485 279.865 17.7426 279.865C21.3366 279.865 21.3366 271.571 24.9307 271.571C28.5248 271.571 28.5248 244.613 32.1188 244.613C35.7129 244.613 35.7129 217.656 39.3069 217.656C42.901 217.656 42.901 192.773 46.495 192.773C50.0891 192.773 50.0891 196.92 53.6832 196.92C57.2772 196.92 57.2772 138.859 60.8713 138.859C64.4653 138.859 64.4653 163.742 68.0594 163.742C71.6535 163.742 71.6535 149.227 75.2475 149.227C78.8416 149.227 78.8416 155.448 82.4356 155.448C86.0297 155.448 86.0297 130.564 89.6238 130.564C93.2178 130.564 93.2178 184.479 96.8119 184.479C100.406 184.479 100.406 143.006 104 143.006C107.594 143.006 107.594 116.049 111.188 116.049C114.782 116.049 114.782 122.27 118.376 122.27C121.97 122.27 121.97 149.227 125.564 149.227C129.158 149.227 129.158 95.3129 132.752 95.3129C136.347 95.3129 136.347 60.0613 139.941 60.0613C143.535 60.0613 143.535 78.7239 147.129 78.7239C150.723 78.7239 150.723 64.2086 154.317 64.2086C157.911 64.2086 157.911 2 161.505 2C165.099 2 165.099 26.8834 167.495 26.8834C171.089 26.8834 171.089 64.2086 174.683 64.2086C178.277 64.2086 178.277 97.3865 181.871 97.3865C185.465 97.3865 185.465 93.2393 189.059 93.2393C192.653 93.2393 192.653 80.7975 196.248 80.7975C199.842 80.7975 199.842 70.4294 203.436 70.4294C207.03 70.4294 207.03 66.2822 210.624 66.2822C214.218 66.2822 214.218 22.7362 217.812 22.7362C221.406 22.7362 221.406 72.5031 225 72.5031C228.594 72.5031 228.594 2 232.188 2C235.782 2 235.782 41.3988 239.376 41.3988C242.97 41.3988 242.97 57.9877 246.564 57.9877C250.158 57.9877 250.158 39.3252 253.752 39.3252C257.347 39.3252 257.347 35.1779 260.941 35.1779C264.535 35.1779 264.535 49.6933 268.129 49.6933C271.723 49.6933 271.723 41.3988 275.317 41.3988C278.911 41.3988 278.911 64.2086 282.505 64.2086C286.099 64.2086 286.099 49.6933 289.693 49.6933C293.287 49.6933 293.287 62.135 296.881 62.135C300.475 62.135 300.475 101.534 304.069 101.534C307.663 101.534 307.663 45.546 311.257 45.546C314.851 45.546 314.851 84.9448 318.446 84.9448C322.04 84.9448 322.04 62.135 325.634 62.135C329.228 62.135 329.228 55.9141 332.822 55.9141C336.416 55.9141 336.416 76.6503 340.01 76.6503C343.604 76.6503 346 87.0184 346 87.0184" stroke="currentColor" stroke-width="3" stroke-linecap="round"/>
</svg>
