<svg width="24" height="24" viewBox="0 0 24 24" fill="none" xmlns="http://www.w3.org/2000/svg">
<path fill-rule="evenodd" clip-rule="evenodd" d="M12.9048 2.95238C12.9048 2.4264 12.4784 2 11.9524 2C11.4264 2 11 2.4264 11 2.95238V11H2.95238C2.4264 11 2 11.4264 2 11.9524C2 12.4784 2.4264 12.9048 2.95238 12.9048H11V21.0476C11 21.5736 11.4264 22 11.9524 22C12.4784 22 12.9048 21.5736 12.9048 21.0476V12.9048H21.0476C21.5736 12.9048 22 12.4784 22 11.9524C22 11.4264 21.5736 11 21.0476 11H12.9048V2.95238Z" fill="black"/>
</svg>
